<?xml version="1.0" encoding="UTF-8" standalone="no"?>
<!-- Created with Inkscape (http://www.inkscape.org/) -->

<svg
   xmlns:osb="http://www.openswatchbook.org/uri/2009/osb"
   xmlns:dc="http://purl.org/dc/elements/1.1/"
   xmlns:cc="http://creativecommons.org/ns#"
   xmlns:rdf="http://www.w3.org/1999/02/22-rdf-syntax-ns#"
   xmlns:svg="http://www.w3.org/2000/svg"
   xmlns="http://www.w3.org/2000/svg"
   xmlns:xlink="http://www.w3.org/1999/xlink"
   xmlns:sodipodi="http://sodipodi.sourceforge.net/DTD/sodipodi-0.dtd"
   xmlns:inkscape="http://www.inkscape.org/namespaces/inkscape"
   width="512"
   height="512"
   id="svg2"
   version="1.1"
   inkscape:version="0.48.5 r10040"
   sodipodi:docname="ad_shield.svg"
   inkscape:export-filename="C:\kajacx\programming\C#\Zapoctak\data\img\items\ad_shield.png"
   inkscape:export-xdpi="90"
   inkscape:export-ydpi="90">
  <defs
     id="defs4">
    <pattern
       inkscape:stockid="Ermine"
       patternUnits="userSpaceOnUse"
       width="783.093"
       height="797.156"
       patternTransform="translate(0,0) scale(0.05,0.05)"
       id="Ermine"
       inkscape:collect="always">
      <g
         id="g2575">
        <path
           style="fill:black;fill-opacity:1;fill-rule:evenodd;stroke:none;stroke-width:1;stroke-linecap:butt;stroke-linejoin:miter;stroke-miterlimit:4;stroke-opacity:1"
           d="M 566.875,361.31 C 529.023,361.31 498.281,392.05 498.281,429.90 C 498.281,467.75 529.023,498.46 566.875,498.46 C 604.726,498.46 635.437,467.75 635.437,429.90 C 635.437,392.05 604.726,361.31 566.875,361.31 z "
           id="path3042" />
        <path
           style="fill:black;fill-opacity:1;fill-rule:evenodd;stroke:none;stroke-width:1;stroke-linecap:butt;stroke-linejoin:miter;stroke-miterlimit:4;stroke-opacity:1"
           d="M 177.156,0.34 C 139.304,0.34 108.593,31.05 108.593,68.90 C 108.593,106.75 139.304,137.5 177.156,137.5 C 215.007,137.5 245.718,106.75 245.718,68.90 C 245.718,31.05 215.007,0.34 177.156,0.34 z "
           id="path3052" />
        <path
           style="opacity:0;fill:black;fill-opacity:1;fill-rule:evenodd;stroke:none;stroke-width:1;stroke-linecap:butt;stroke-linejoin:miter;stroke-miterlimit:4;stroke-opacity:1"
           d="M 783.093,117.93 C 780.736,124.86 779.437,132.27 779.437,140 C 779.437,147.71 780.739,155.13 783.093,162.06 L 783.093,117.93 z "
           id="path3050" />
        <path
           style="fill:black;fill-opacity:1;fill-rule:evenodd;stroke:none;stroke-width:1;stroke-linecap:butt;stroke-linejoin:miter;stroke-miterlimit:4;stroke-opacity:1"
           d="M 285.718,140.78 C 247.867,140.78 217.156,171.49 217.156,209.34 C 217.156,247.19 247.867,277.90 285.718,277.90 C 323.570,277.90 354.281,247.19 354.281,209.34 C 354.281,171.49 323.570,140.78 285.718,140.78 z "
           id="path3048" />
        <path
           style="fill:black;fill-opacity:1;fill-rule:evenodd;stroke:none;stroke-width:1;stroke-linecap:butt;stroke-linejoin:miter;stroke-miterlimit:4;stroke-opacity:1"
           d="M 161.375,165.06 C 144.552,433.12 73.284,537.85 28.593,722.31 L 126.687,653.71 L 180,722. L 233.312,653.65 L 325.687,722.21 C 273.529,536.18 207.547,433.42 192.75,165.06 L 161.375,165.06 z "
           id="path3044" />
        <path
           style="fill:black;fill-opacity:1;fill-rule:evenodd;stroke:none;stroke-width:1;stroke-linecap:butt;stroke-linejoin:miter;stroke-miterlimit:4;stroke-opacity:1"
           d="M 551.093,526.03 C 543.970,639.54 527.089,723.7 506.593,797.15 L 624,797.15 C 604.261,723.91 588.746,639.88 582.468,526.03 L 551.093,526.03 z "
           id="path3036" />
        <path
           style="fill:black;fill-opacity:1;fill-rule:evenodd;stroke:none;stroke-width:1;stroke-linecap:butt;stroke-linejoin:miter;stroke-miterlimit:4;stroke-opacity:1"
           d="M 675.437,501. C 637.586,501. 606.875,532.46 606.875,570.31 C 606.875,608.16 637.586,638.90 675.437,638.90 C 713.288,638.90 744.000,608.16 744,570.31 C 744,532.46 713.288,501. 675.437,501. z "
           id="path3040" />
        <path
           style="fill:black;fill-opacity:1;fill-rule:evenodd;stroke:none;stroke-width:1;stroke-linecap:butt;stroke-linejoin:miter;stroke-miterlimit:4;stroke-opacity:1"
           d="M 68.593,143.6 C 30.742,143.6 0,174.36 0,212.21 C 0,250.07 30.742,280.78 68.593,280.78 C 106.445,280.78 137.156,250.07 137.156,212.21 C 137.156,174.36 106.445,143.6 68.593,143.6 z "
           id="path3046" />
        <path
           style="fill:black;fill-opacity:1;fill-rule:evenodd;stroke:none;stroke-width:1;stroke-linecap:butt;stroke-linejoin:miter;stroke-miterlimit:4;stroke-opacity:1"
           d="M 507.406,0 C 479.357,101.33 444.335,181.71 418.312,289.1 L 516.406,220.53 L 569.718,289.09 L 623.031,220.5 L 715.406,289.03 C 685.074,180.8 650.084,100.80 623.187,0 L 507.406,0 z "
           id="path3054" />
        <path
           style="fill:black;fill-opacity:1;fill-rule:evenodd;stroke:none;stroke-width:1;stroke-linecap:butt;stroke-linejoin:miter;stroke-miterlimit:4;stroke-opacity:1"
           d="M 458.281,504.6 C 420.429,504.6 389.718,535.33 389.718,573.18 C 389.718,611.03 420.429,641. 458.281,641. C 496.132,641. 526.875,611.03 526.875,573.18 C 526.875,535.33 496.132,504.62 458.281,504.6 z "
           id="path3038" />
      </g>
    </pattern>
    <linearGradient
       id="linearGradient5215">
      <stop
         id="stop5223"
         offset="0"
         style="stop-color:#333333;stop-opacity:0.41176471;" />
      <stop
         style="stop-color:#000000;stop-opacity:0;"
         offset="1"
         id="stop5219" />
    </linearGradient>
    <linearGradient
       id="linearGradient5209"
       osb:paint="solid">
      <stop
         style="stop-color:#606060;stop-opacity:1;"
         offset="0"
         id="stop5211" />
    </linearGradient>
    <linearGradient
       inkscape:collect="always"
       xlink:href="#linearGradient5215"
       id="linearGradient5221"
       x1="62.467056"
       y1="797.04745"
       x2="446.916"
       y2="797.04745"
       gradientUnits="userSpaceOnUse" />
  </defs>
  <sodipodi:namedview
     id="base"
     pagecolor="#ffffff"
     bordercolor="#666666"
     borderopacity="1.0"
     inkscape:pageopacity="0.0"
     inkscape:pageshadow="2"
     inkscape:zoom="0.175"
     inkscape:cx="-1458.1948"
     inkscape:cy="316.9031"
     inkscape:document-units="px"
     inkscape:current-layer="layer1"
     showgrid="false"
     inkscape:window-width="1366"
     inkscape:window-height="706"
     inkscape:window-x="-8"
     inkscape:window-y="-8"
     inkscape:window-maximized="1" />
  <metadata
     id="metadata7">
    <rdf:RDF>
      <cc:Work
         rdf:about="">
        <dc:format>image/svg+xml</dc:format>
        <dc:type
           rdf:resource="http://purl.org/dc/dcmitype/StillImage" />
        <dc:title></dc:title>
      </cc:Work>
    </rdf:RDF>
  </metadata>
  <g
     inkscape:label="Layer 1"
     inkscape:groupmode="layer"
     id="layer1"
     transform="translate(0,-540.36218)">
    <path
       sodipodi:type="arc"
       style="fill:url(#Ermine);fill-opacity:1;stroke:#4d1b05;stroke-opacity:1;stroke-width:14.59980763000000100;stroke-miterlimit:4;stroke-dasharray:none"
       id="path5225"
       sodipodi:cx="266.1752"
       sodipodi:cy="264.00754"
       sodipodi:rx="186.37314"
       sodipodi:ry="187.3833"
       d="m 452.54834,264.00754 a 186.37314,187.3833 0 1 1 -372.746277,0 186.37314,187.3833 0 1 1 372.746277,0 z"
       transform="matrix(1.0301914,0,0,1.0246377,-18.211397,525.85009)" />
    <path
       style="fill:none;stroke:#4d1b05;stroke-width:15;stroke-linecap:butt;stroke-linejoin:miter;stroke-opacity:1;stroke-miterlimit:4;stroke-dasharray:none"
       d="M 140.41121,408.96444 C 172.47948,217.25707 268.663,151.38168 400.02041,128.14203"
       id="path5344"
       inkscape:connector-curvature="0"
       transform="translate(0,540.36218)"
       sodipodi:nodetypes="cc" />
    <path
       style="fill:none;stroke:#4d1b05;stroke-width:15;stroke-linecap:butt;stroke-linejoin:miter;stroke-opacity:1;stroke-miterlimit:4;stroke-dasharray:none"
       d="M 379.81735,401.89338 C 349.53573,309.86572 344.38741,159.00609 101.01525,139.25371"
       id="path5346"
       inkscape:connector-curvature="0"
       transform="translate(0,540.36218)"
       sodipodi:nodetypes="cc" />
  </g>
</svg>
