<?xml version="1.0" encoding="UTF-8" standalone="no"?>
<!-- Created with Inkscape (http://www.inkscape.org/) -->

<svg
   xmlns:dc="http://purl.org/dc/elements/1.1/"
   xmlns:cc="http://creativecommons.org/ns#"
   xmlns:rdf="http://www.w3.org/1999/02/22-rdf-syntax-ns#"
   xmlns:svg="http://www.w3.org/2000/svg"
   xmlns="http://www.w3.org/2000/svg"
   xmlns:xlink="http://www.w3.org/1999/xlink"
   xmlns:sodipodi="http://sodipodi.sourceforge.net/DTD/sodipodi-0.dtd"
   xmlns:inkscape="http://www.inkscape.org/namespaces/inkscape"
   width="512"
   height="512"
   id="svg2"
   version="1.1"
   inkscape:version="0.48.5 r10040"
   sodipodi:docname="wooden_staff.svg"
   inkscape:export-filename="C:\kajacx\programming\C#\Zapoctak\data\img\items\hp_shield.png"
   inkscape:export-xdpi="90"
   inkscape:export-ydpi="90">
  <defs
     id="defs4">
    <linearGradient
       id="linearGradient5297">
      <stop
         style="stop-color:#00ff00;stop-opacity:1;"
         offset="0"
         id="stop5299" />
      <stop
         style="stop-color:#ffff00;stop-opacity:1;"
         offset="1"
         id="stop5301" />
    </linearGradient>
    <linearGradient
       id="linearGradient3833">
      <stop
         style="stop-color:#0000ff;stop-opacity:1;"
         offset="0"
         id="stop3835" />
      <stop
         style="stop-color:#ff0000;stop-opacity:1;"
         offset="1"
         id="stop3837" />
    </linearGradient>
    <linearGradient
       inkscape:collect="always"
       xlink:href="#linearGradient3833"
       id="linearGradient5287"
       x1="46.83828"
       y1="798.62506"
       x2="466.01886"
       y2="798.62506"
       gradientUnits="userSpaceOnUse" />
    <linearGradient
       inkscape:collect="always"
       xlink:href="#linearGradient5297"
       id="linearGradient5303"
       x1="46.83828"
       y1="798.62506"
       x2="466.01886"
       y2="798.62506"
       gradientUnits="userSpaceOnUse" />
  </defs>
  <sodipodi:namedview
     id="base"
     pagecolor="#ffffff"
     bordercolor="#666666"
     borderopacity="1.0"
     inkscape:pageopacity="0.0"
     inkscape:pageshadow="2"
     inkscape:zoom="0.7"
     inkscape:cx="324.20755"
     inkscape:cy="241.36002"
     inkscape:document-units="px"
     inkscape:current-layer="layer1"
     showgrid="false"
     inkscape:window-width="1366"
     inkscape:window-height="706"
     inkscape:window-x="-8"
     inkscape:window-y="-8"
     inkscape:window-maximized="1" />
  <metadata
     id="metadata7">
    <rdf:RDF>
      <cc:Work
         rdf:about="">
        <dc:format>image/svg+xml</dc:format>
        <dc:type
           rdf:resource="http://purl.org/dc/dcmitype/StillImage" />
        <dc:title></dc:title>
      </cc:Work>
    </rdf:RDF>
  </metadata>
  <g
     inkscape:label="Layer 1"
     inkscape:groupmode="layer"
     id="layer1"
     transform="translate(0,-540.36218)">
    <path
       style="fill:none;stroke:#943700;stroke-width:11.68190098;stroke-linecap:butt;stroke-linejoin:miter;stroke-miterlimit:4;stroke-opacity:1;stroke-dasharray:none"
       d="m 264.46689,1027.2355 c 0,-6.6754 0,-13.3507 0,-20.0261 0,-1.6688 0.52773,-3.4233 0,-5.0065 -0.24877,-0.7464 -1.31701,-0.9652 -1.66884,-1.6689 -0.49755,-0.99508 0.61713,-2.41195 0,-3.33766 -1.11256,-1.11256 -2.22512,-2.22512 -3.33768,-3.33768 0,-0.55628 0.24877,-1.1713 0,-1.66884 -0.35182,-0.70365 -1.23246,-1.01427 -1.66885,-1.66886 -0.68998,-1.03497 -0.97886,-2.30271 -1.66884,-3.33768 -0.43638,-0.65457 -1.31702,-0.96519 -1.66885,-1.66884 -0.24877,-0.49756 0.39336,-1.27549 0,-1.66884 -0.39335,-0.39336 -1.17128,0.24877 -1.66884,0 -0.70364,-0.35183 -1.11256,-1.11256 -1.66884,-1.66884 -0.55628,-0.55628 -1.31702,-0.96521 -1.66884,-1.66885 -0.24878,-0.49755 0.39334,-1.2755 0,-1.66885 -0.39335,-0.39334 -1.1713,0.24878 -1.66884,0 -0.70365,-0.35182 -0.96521,-1.31702 -1.66885,-1.66884 -0.49755,-0.24878 -1.27549,0.39335 -1.66885,0 -3.45289,-3.45289 5.27649,0.13498 -1.66884,-3.33768 -0.49755,-0.24878 -1.14111,0.1759 -1.66884,0 -1.18005,-0.39336 -2.15763,-1.27549 -3.33768,-1.66884 -1.05547,-0.35183 -2.55099,0.78669 -3.3377,0 -6.51304,-6.51306 0.3863,-0.89625 -1.66884,-5.00654 -0.35182,-0.70364 -1.31701,-0.96519 -1.66884,-1.66884 -0.24878,-0.49755 0,-1.11256 0,-1.66884 0,-0.55628 0,-1.11256 0,-1.66884 0,-2.78141 0,-5.56281 0,-8.34422 0,-1.04651 0.20614,-6.46923 0,-6.67537 -0.39335,-0.39335 -1.27549,0.39334 -1.66884,0 -0.39335,-0.39335 0,-1.11256 0,-1.66884 0,-0.87267 -0.21941,-6.23657 0,-6.67538 0.35182,-0.70364 1.47804,-0.90562 1.66884,-1.66884 0.40476,-1.61902 -0.32728,-3.3701 0,-5.00653 2.10767,-10.53834 0.33997,-0.33997 3.33768,-3.33769 0.39336,-0.39335 -0.1759,-1.14111 0,-1.66884 4.02938,-12.08813 -0.48113,2.63112 3.3377,-5.00652 0.24878,-0.49756 -0.39335,-1.2755 0,-1.66886 0.39334,-0.39334 1.11256,0 1.66884,0 0,-0.55628 -0.39335,-1.27548 0,-1.66884 0.39335,-0.39334 1.42006,0.49756 1.66884,0 0.49756,-0.9951 -0.61714,-2.41197 0,-3.33768 0.68998,-1.03497 2.30271,-0.97886 3.33768,-1.66884 0.65458,-0.43639 1.23247,-1.01427 1.66885,-1.66884 0.55628,-1.11256 1.11257,-2.22512 1.66885,-3.3377 0.55628,0 1.27549,0.39336 1.66884,0 0.39334,-0.39334 -0.39335,-1.27548 0,-1.66884 0.39334,-0.39334 1.27549,0.39336 1.66884,0 0.39335,-0.39334 -0.39335,-1.27549 0,-1.66884 0.39335,-0.39335 1.17129,0.24878 1.66884,0 0.70365,-0.35182 1.11256,-1.11256 1.66884,-1.66884 0.55628,-0.55628 1.42007,-0.92251 1.66885,-1.66884 0.35182,-1.05547 -0.49755,-2.34259 0,-3.33768 0.24877,-0.49756 1.17129,0.24876 1.66884,0 0.70364,-0.35183 0.9652,-1.31703 1.66885,-1.66886 0.49754,-0.24876 1.27549,0.39336 1.66884,0 5.12235,-5.12234 -0.97504,-1.3876 1.66884,-6.67536 0.24878,-0.49756 1.27549,0.39335 1.66884,0 0.39336,-0.39336 0,-1.11256 0,-1.66884 0,-3.89398 0,-7.78794 0,-11.68191 0,-11.12562 0,-22.25124 0,-33.37686 0,-0.61287 0.0672,-6.60822 0,-6.67538 -0.39335,-0.39334 -1.27548,0.39336 -1.66884,0 -0.39335,-0.39334 0.39336,-1.27548 0,-1.66884 -0.39335,-0.39335 -1.2755,0.39336 -1.66884,0 -0.39335,-0.39335 0,-1.11256 0,-1.66884 0,-0.55628 0,-1.11256 0,-1.66884 0,-2.7814 0,-5.56282 0,-8.34422 0,-1.11256 -0.49755,-2.34258 0,-3.33768 0.24878,-0.49756 1.27549,0.39335 1.66884,0 0.39336,-0.39335 -0.24877,-1.1713 0,-1.66884 0.35183,-0.70365 1.11256,-1.11256 1.66884,-1.66884 0.55628,-0.55628 0.9652,-1.31703 1.66885,-1.66886 0.49755,-0.24876 1.2755,0.39336 1.66884,0 0.39335,-0.39334 -0.39334,-1.27549 0,-1.66884 0.39335,-0.39334 1.2755,0.39335 1.66884,0 3.4529,-3.45289 -5.27648,0.13499 1.66885,-3.33768 0.49755,-0.24878 1.27549,0.39335 1.66884,0 0.39334,-0.39335 -0.39335,-1.27549 0,-1.66884 0.87956,-0.87956 2.30272,-0.97886 3.33769,-1.66884 0.65457,-0.43639 1.11256,-1.11256 1.66884,-1.66885 1.11256,-0.55628 2.30271,-0.97886 3.33768,-1.66885 0.65458,-0.43638 0.9652,-1.31702 1.66885,-1.66884 0.49755,-0.24878 1.27549,0.39335 1.66884,0 0.39335,-0.39334 -0.39335,-1.27549 0,-1.66884 0.39335,-0.39335 1.17129,0.24878 1.66885,0 5.53485,-5.53485 -1.5734,0.78671 3.33768,-1.66884 1.40729,-0.70365 1.9304,-2.63404 3.33768,-3.33769 0.49756,-0.24877 1.2755,0.39335 1.66885,0 0.39335,-0.39335 0,-1.11256 0,-1.66884 0,-0.55628 0,-1.11257 0,-1.66885 0,-2.22512 0,-4.45024 0,-6.67536 0,-1.11257 -0.35182,-2.28223 0,-3.33769 0.39335,-1.18006 1.27549,-2.15763 1.66885,-3.33769 0.32827,-0.98482 0,-7.41178 0,-8.34421 0,-1.09661 0.31384,-4.06497 0,-5.00653 3.02202,-6.98204 -2.63405,-1.93039 -3.3377,-3.33769 -0.49754,-0.99511 0.35182,-2.28222 0,-3.33768 -0.37668,-1.13006 -4.36912,-3.73173 -5.00652,-5.00654 -0.24878,-0.49755 0.39335,-1.27548 0,-1.66884 -0.87956,-0.87955 -2.30272,-0.97886 -3.33769,-1.66884 -1.44005,-0.96003 -3.70302,-3.70302 -5.00653,-5.00653 -0.55628,-0.55629 -0.9652,-1.31702 -1.66884,-1.66885 -0.49756,-0.24877 -1.27549,0.39336 -1.66884,0 -0.87956,-0.87955 -0.97887,-2.30271 -1.66885,-3.33768 -0.96003,-1.44004 -3.70302,-3.70302 -5.00653,-5.00652 -0.55628,-0.55628 -1.31702,-0.96521 -1.66884,-1.66886 -0.24878,-0.49754 0.39335,-1.27548 0,-1.66884 -0.39334,-0.39334 -1.27549,0.39336 -1.66884,0 -0.7867,-0.78669 0.49755,-2.34257 0,-3.33768 -0.35183,-0.70365 -1.31702,-0.96519 -1.66885,-1.66884 -0.24877,-0.49756 0.17591,-1.14111 0,-1.66884 -0.39335,-1.18006 -1.27548,-2.15764 -1.66884,-3.3377 -0.17591,-0.52773 0.24878,-1.17128 0,-1.66884 -0.35182,-0.70365 -1.11256,-1.11256 -1.66884,-1.66884 0,-1.11256 0.35183,-2.28221 0,-3.33768 -0.24878,-0.74634 -1.31702,-0.9652 -1.66884,-1.66884 -0.18703,-0.37405 0,-6.27882 0,-6.67538 0,-6.11909 0,-12.23818 0,-18.35727 0,-3.33769 0,-6.67538 0,-10.01306 0,-1.09661 -0.31386,-4.06497 0,-5.00653 0.39334,-1.18005 1.27549,-2.15764 1.66884,-3.33769 0.336,-1.00799 -0.33601,-2.32968 0,-3.33768 0.39334,-1.18006 1.49293,-2.1063 1.66884,-3.33769 0.39336,-2.75345 0,-5.56281 0,-8.34421 0,-3.33769 0,-6.67538 0,-10.01306 0,-0.55628 0,-1.11256 0,-1.66884 0,-0.55628 -0.39335,-1.2755 0,-1.66884 0.39336,-0.39336 1.27549,0.39334 1.66884,0 0.39336,-0.39336 -0.39335,-1.2755 0,-1.66886 0.39336,-0.39334 1.27549,0.39336 1.66885,0 2.29307,-2.29306 1.66884,-5.51305 1.66884,-8.3442 0,-0.55628 -0.24878,-1.1713 0,-1.66884 0.35182,-0.70365 1.31703,-0.96521 1.66884,-1.66886 0.66754,-1.33506 -0.66753,-3.67144 0,-5.00652 0.70365,-1.4073 2.63405,-1.9304 3.33769,-3.33768 0.24878,-0.49756 -0.24878,-1.1713 0,-1.66885 0.35183,-0.70364 1.31702,-0.9652 1.66884,-1.66885 0.49756,-0.9951 -0.7867,-2.55098 0,-3.33768 0.39336,-0.39335 1.27549,0.39335 1.66885,0 0.39335,-0.39335 -0.24878,-1.17129 0,-1.66884 0.35182,-0.70365 1.11256,-1.11256 1.66884,-1.66884"
       id="path5315"
       inkscape:connector-curvature="0" />
    <path
       sodipodi:type="arc"
       style="fill:#355a13;fill-opacity:0.87301588;stroke:none"
       id="path5321"
       sodipodi:cx="267.85715"
       sodipodi:cy="131.28572"
       sodipodi:rx="29.285715"
       sodipodi:ry="29.285715"
       d="m 297.14286,131.28572 a 29.285715,29.285715 0 1 1 -58.57143,0 29.285715,29.285715 0 1 1 58.57143,0 z"
       transform="matrix(1.1681901,0,0,1.1681901,-50.944441,457.4925)" />
    <path
       style="fill:none;stroke:#7b5e18;stroke-width:11.68190098;stroke-linecap:butt;stroke-linejoin:miter;stroke-miterlimit:4;stroke-opacity:1;stroke-dasharray:none"
       d="m 254.45383,1008.8782 c -0.55628,-2.2251 -1.21903,-4.4263 -1.66884,-6.6753 -0.32729,-1.6365 0,-3.33772 0,-5.00656 0,-2.22512 0,-4.45024 0,-6.67538 0,-7.78792 0,-15.57586 0,-23.3638 0,-3.33768 0,-6.67537 0,-10.01305 0,-1.66885 -0.74633,-3.51388 0,-5.00653 0.24878,-0.49756 1.27549,0.39335 1.66884,0 0.39336,-0.39336 -0.1759,-1.14112 0,-1.66885 0.39336,-1.18004 0.78929,-2.45812 1.66885,-3.33768 0.39335,-0.39335 1.42007,0.49755 1.66884,0 0.49755,-0.99511 -0.26983,-2.25834 0,-3.33769 2.01469,-8.05875 0.79307,0.0827 3.33769,-5.00653 0.24878,-0.49755 -0.39335,-1.27549 0,-1.66884 0.39334,-0.39335 1.27549,0.39335 1.66884,0 3.11393,-3.11393 0.77561,-4.8889 1.66884,-6.67538 0.70365,-1.40728 2.84014,-1.84502 3.33769,-3.33768 0.35182,-1.05547 -0.35183,-2.28222 0,-3.33768 0.49755,-1.49267 2.63404,-1.9304 3.33769,-3.3377 0.24877,-0.49754 0,-1.11256 0,-1.66884 0,-0.70201 0.24822,-9.51661 0,-10.01306 -0.35182,-0.70363 -1.31703,-0.96519 -1.66885,-1.66884 -0.49755,-0.9951 0.7867,-2.55099 0,-3.33768 -3.45289,-3.4529 0.13498,5.27648 -3.33768,-1.66884 -0.24878,-0.49756 0.17591,-1.14111 0,-1.66884 -0.39336,-1.18006 -1.27549,-2.15764 -1.66885,-3.3377 -0.45206,-1.35618 0.40344,-3.79622 0,-5.00652 -0.78669,-2.36011 -2.05774,-4.54214 -3.33768,-6.67538 -0.40475,-0.67458 -1.42007,-0.92251 -1.66884,-1.66884 -0.35182,-1.05547 0.49754,-2.34257 0,-3.33768 -0.24878,-0.49756 -1.2755,0.39335 -1.66885,0 -0.56277,-0.56278 0.56277,-2.77492 0,-3.33769 -0.39334,-0.39335 -1.27549,0.39335 -1.66884,0 -0.83442,-0.83442 0.83442,-4.17211 0,-5.00653 -0.39335,-0.39334 -1.42007,0.49755 -1.66885,0 -0.49755,-0.9951 0.35183,-2.28221 0,-3.33768 -0.24877,-0.74634 -1.11256,-1.11257 -1.66884,-1.66885 -0.55628,-1.11256 -1.36715,-2.13094 -1.66884,-3.33768 -0.32819,-1.31274 0,-8.2776 0,-10.01306 0,-0.55628 0.24878,-1.1713 0,-1.66884 -0.35182,-0.70365 -1.31702,-0.96521 -1.66884,-1.66885 -0.49756,-0.9951 0.78669,-2.55098 0,-3.33769 -0.39335,-0.39335 -1.2755,0.39336 -1.66884,0 -0.0757,-0.0756 0,-7.55736 0,-8.34421 0,-0.75157 -0.25395,-4.49865 0,-5.00653 0.35182,-0.70365 1.11256,-1.11256 1.66884,-1.66884 0,-1.11256 -0.35182,-2.28222 0,-3.33768 0.49754,-1.49267 2.84013,-1.84503 3.33768,-3.3377 0.35183,-1.05547 -0.35182,-2.28221 0,-3.33768 0.49756,-1.49265 2.63404,-1.9304 3.33769,-3.33768 0.24877,-0.49756 0,-1.11256 0,-1.66884 0.55628,-1.11258 0.97886,-2.30272 1.66884,-3.3377 0.43639,-0.65457 1.31703,-0.96519 1.66885,-1.66884 0.66753,-1.33508 -0.66754,-3.67146 0,-5.00652 0.24877,-0.49756 1.27549,0.39334 1.66884,0 0.39334,-0.39336 -0.24878,-1.1713 0,-1.66885 0.35183,-0.70364 1.31702,-0.9652 1.66884,-1.66885 0.24878,-0.49754 -0.24877,-1.17128 0,-1.66884 0.35183,-0.70365 1.31702,-0.96519 1.66884,-1.66884 0.24878,-0.49756 -0.39335,-1.27549 0,-1.66884 0.39336,-0.39336 1.27549,0.39335 1.66885,0 0.39335,-0.39336 -0.24878,-1.17129 0,-1.66884 0.82109,-1.6422 5.85428,-5.03319 6.67537,-6.67538 0.24878,-0.49754 -0.39335,-1.27549 0,-1.66884 0.39334,-0.39336 1.27549,0.39335 1.66884,0 0.20614,-0.20614 0,-5.62886 0,-6.67537 0,-1.41294 -0.29905,-5.77819 0,-6.67537 0.24878,-0.74634 1.31702,-0.9652 1.66885,-1.66885 0.25394,-0.50788 0,-4.25495 0,-5.00653 0,-3.89397 0,-7.78793 0,-11.6819 0,-1.16074 0.30175,-7.7407 0,-8.34421 -0.35183,-0.70365 -1.31702,-0.96521 -1.66885,-1.66884 -0.49755,-0.99511 0.7867,-2.55099 0,-3.3377 -0.39335,-0.39334 -1.2755,0.39336 -1.66884,0 -0.39335,-0.39334 0.39334,-1.27548 0,-1.66884 -2.45554,0 -1.2755,0.39336 -3.33769,-1.66884 -0.55628,-0.55628 -1.31702,-0.96519 -1.66884,-1.66884 -0.24878,-0.49756 0.49755,-1.42006 0,-1.66884 -0.9951,-0.49756 -2.34257,0.49754 -3.33769,0 -0.49755,-0.24878 0.39336,-1.2755 0,-1.66884 -0.39335,-0.39336 -1.17128,0.24876 -1.66884,0 -1.40729,-0.70365 -1.9304,-2.63405 -3.33768,-3.3377 -0.49756,-0.24878 -1.2755,0.39336 -1.66885,0 -0.39334,-0.39334 0.39335,-1.27549 0,-1.66884 -0.39334,-0.39335 -1.17129,0.24878 -1.66884,0 -0.70365,-0.35182 -1.01427,-1.23246 -1.66885,-1.66884 -1.03497,-0.68998 -2.30271,-0.97886 -3.33768,-1.66884 -4.15114,-2.76743 -0.19173,-0.38347 -1.66884,-3.33768 -3.81883,-7.63764 0.69169,7.08159 -3.33769,-5.00654 -0.34915,-1.04746 0,-5.33189 0,-6.67537 0,-0.87267 -0.2194,-6.23657 0,-6.67537 0.35182,-0.70365 1.23246,-1.01427 1.66885,-1.66884 1.0163,-1.52447 1.42449,-4.04994 3.33768,-5.00654 0.49756,-0.24877 1.27549,0.39335 1.66884,0 0.39336,-0.39334 -0.39335,-1.27549 0,-1.66884 2.03263,-2.03262 3.72855,-0.78172 5.00653,-3.33768 0.24877,-0.49756 -0.39334,-1.27549 0,-1.66885 0.34118,-0.34117 4.34485,0.33085 5.00653,0 0.70365,-0.35182 0.9652,-1.31701 1.66884,-1.66884 0.49756,-0.24877 1.27549,0.39334 1.66885,0 0.7867,-0.7867 -0.7867,-2.55099 0,-3.33769 0.39335,-0.39334 1.2755,0.39335 1.66884,0 0.39335,-0.39334 -0.24878,-1.17129 0,-1.66884 0.35182,-0.70365 1.31703,-0.9652 1.66884,-1.66884 0.24878,-0.49756 0,-1.11256 0,-1.66885 0,-1.61689 -0.33169,-9.01797 0,-10.01306 0.39335,-1.18004 1.36717,-2.13094 1.66885,-3.33768 0.30743,-1.22976 -0.48887,-7.36648 0,-8.34422 0.35183,-0.70364 1.31702,-0.96519 1.66884,-1.66884 0.24878,-0.49755 -0.24878,-1.17128 0,-1.66884 0.35183,-0.70365 1.31702,-0.96519 1.66884,-1.66884 0.24878,-0.49756 0,-1.11256 0,-1.66884 0.55628,-0.55628 1.31702,-0.96521 1.66885,-1.66885 0.24877,-0.49755 -0.24878,-1.17129 0,-1.66885 0.35182,-0.70364 1.31701,-0.96519 1.66884,-1.66884 0.24877,-0.49755 -0.24878,-1.17128 0,-1.66884 0.35182,-0.70365 1.23246,-1.01427 1.66884,-1.66884 0.68998,-1.03497 0.97886,-2.30271 1.66884,-3.33768 0.43639,-0.65459 1.31703,-0.96521 1.66885,-1.66886 0.24877,-0.49754 -0.39335,-1.27548 0,-1.66884 3.3119,-3.31191 0.52746,7.90322 3.33769,-3.33768 0.26984,-1.07935 -0.35183,-2.28222 0,-3.33768 1.73632,-5.209 1.11256,0.55628 3.33768,-1.66884 0.39335,-0.39336 -0.39335,-1.2755 0,-1.66886 0.39335,-0.39334 1.42006,0.49756 1.66884,0 0.49756,-0.9951 -0.49754,-2.34257 0,-3.33768 0.24878,-0.49756 1.2755,0.39335 1.66884,0 0.39335,-0.39335 -0.39334,-1.27549 0,-1.66884 0.39335,-0.39335 1.2755,0.39335 1.66885,0 0.39335,-0.39335 0,-1.11256 0,-1.66884 0,-0.87268 0.2194,-6.23657 0,-6.67538 -0.35182,-0.70365 -1.42007,-0.92251 -1.66885,-1.66884 -0.35181,-1.05547 0,-2.22512 0,-3.33768"
       id="path5317"
       inkscape:connector-curvature="0" />
    <path
       style="fill:none;stroke:#b16900;stroke-width:11.68190098;stroke-linecap:butt;stroke-linejoin:miter;stroke-miterlimit:4;stroke-opacity:1;stroke-dasharray:none"
       d="m 239.43425,1018.8913 c 0,-27.27922 -1.05547,1.3263 1.66884,-15.0196 0.27436,-1.6461 0,-3.3377 0,-5.00652 0.55628,-1.66884 1.2422,-3.29994 1.66884,-5.00652 0.68795,-2.7518 0.9809,-5.59242 1.66884,-8.34422 0.85331,-3.41318 2.64771,-6.56315 3.3377,-10.01306 0.61551,-3.07756 -0.61178,-8.623 0,-11.6819 0.24394,-1.21973 1.27549,-2.15764 1.66884,-3.33769 0.52773,-1.5832 -0.40475,-3.38751 0,-5.00653 0.30169,-1.20674 1.36716,-2.13094 1.66884,-3.33768 0.26984,-1.07934 -0.35182,-2.28222 0,-3.33769 0.49756,-1.49265 2.63404,-1.9304 3.33768,-3.33768 0.24878,-0.49756 -0.24877,-1.1713 0,-1.66885 0.35183,-0.70364 1.23247,-1.01427 1.66885,-1.66884 0.68998,-1.03497 0.97886,-2.30272 1.66884,-3.33769 0.43639,-0.65457 1.31703,-0.96519 1.66885,-1.66884 0.24877,-0.49755 -0.39335,-1.2755 0,-1.66884 0.39334,-0.39335 1.27549,0.39334 1.66884,0 0.39334,-0.39335 -0.39335,-1.2755 0,-1.66884 3.45289,-3.4529 -0.13498,5.27648 3.33768,-1.66885 0.24878,-0.49755 -0.24877,-1.17129 0,-1.66885 0.35183,-0.70364 1.31702,-0.96519 1.66885,-1.66884 0.37129,-0.74259 -0.25444,-5.91206 0,-6.67536 0.24877,-0.74634 1.31701,-0.96521 1.66884,-1.66886 0.24877,-0.49754 0,-1.11256 0,-1.66884 0,-1.66884 0,-3.33768 0,-5.00652 0,-1.27402 -0.35048,-8.96161 0,-10.01306 2.16639,-6.49919 1.66884,-0.15612 1.66884,-6.67538 0,-0.55628 0.39335,-1.27549 0,-1.66884 -0.39334,-0.39334 -1.17129,0.24878 -1.66884,0 -2.00261,-1.0013 -3.00392,-4.00522 -5.00653,-5.00652 -0.99511,-0.49756 -2.28222,0.35182 -3.33768,0 -0.74633,-0.24878 -1.01427,-1.23247 -1.66885,-1.66884 -2.79018,-1.86013 -3.88519,-1.47758 -6.67537,-3.3377 -1.30914,-0.87275 -1.9304,-2.63403 -3.33768,-3.33768 -0.49756,-0.24878 -1.1713,0.24878 -1.66885,0 -0.70364,-0.35183 -0.9652,-1.31702 -1.66885,-1.66884 -0.49754,-0.24878 -1.17128,0.24877 -1.66884,0 -6.94532,-3.47267 1.78406,0.11518 -1.66884,-3.33769 -0.39335,-0.39335 -1.27549,0.39335 -1.66884,0 -0.39335,-0.39335 0.39335,-1.2755 0,-1.66884 -0.39335,-0.39335 -1.1713,0.24877 -1.66884,0 -0.31945,-0.15972 -6.51565,-6.35592 -6.67538,-6.67537 -0.24822,-0.49644 0,-9.31104 0,-10.01306 0,-0.78686 -0.0756,-8.26858 0,-8.34422 0.39335,-0.39334 1.2755,0.39335 1.66884,0 0.39336,-0.39334 -0.1759,-1.1411 0,-1.66884 4.02938,-12.08813 -0.48113,2.63111 3.3377,-5.00653 0.24876,-0.49755 -0.39336,-1.2755 0,-1.66884 0.39334,-0.39335 1.27549,0.39334 1.66884,0 3.45289,-3.4529 -5.27648,0.13497 1.66884,-3.33769 0.49756,-0.24877 1.27549,0.39335 1.66884,0 0.78671,-0.7867 -0.49755,-2.34258 0,-3.33769 0.35183,-0.70364 1.31702,-0.96519 1.66884,-1.66884 0.24878,-0.49755 -0.39335,-1.27549 0,-1.66884 2.22512,-2.22512 1.60136,3.54015 3.33769,-1.66884 0.35182,-1.05547 -0.49755,-2.34258 0,-3.3377 0.24877,-0.49754 1.14111,0.17592 1.66885,0 1.18005,-0.39334 2.13094,-1.36715 3.33768,-1.66884 1.07934,-0.26983 2.22512,0 3.33768,0 0.55628,0 1.1713,0.24878 1.66885,0 0.70364,-0.35182 0.9652,-1.31701 1.66884,-1.66884 0.49755,-0.24878 1.11257,0 1.66885,0 0.55628,0 1.11256,0 1.66884,0 3.33768,0 6.67537,0 10.01306,0 0.55628,0 1.11256,0 1.66884,0 0.55628,0 1.27549,0.39335 1.66884,0 0.39336,-0.39335 -0.49755,-1.42006 0,-1.66884 0.52215,-0.26108 8.97896,0 10.01306,0 0.55628,0 1.17129,0.24878 1.66885,0 1.40729,-0.70365 1.93038,-2.63403 3.33768,-3.33768 0.49755,-0.24878 1.2755,0.39334 1.66884,0 0.78671,-0.78671 -0.35182,-2.28223 0,-3.3377 0.39335,-1.18004 1.2755,-2.15763 1.66884,-3.33768 0.30107,-0.90319 0,-6.10684 0,-6.67537 0,-0.75157 0.25395,-4.49865 0,-5.00653 -3.47265,-6.94532 0.11518,1.78406 -3.33768,-1.66884 -0.39335,-0.39336 0.24878,-1.17129 0,-1.66884 -0.35183,-0.70365 -1.31702,-0.9652 -1.66884,-1.66885 -0.24878,-0.49755 0.39335,-1.2755 0,-1.66884 -0.39336,-0.39335 -1.17129,0.24877 -1.66884,0 -6.94533,-3.47266 1.78404,0.11519 -1.66885,-3.33769 -0.39335,-0.39334 -1.2755,0.39335 -1.66884,0 -0.39335,-0.39334 0.39334,-1.27549 0,-1.66884 -0.39335,-0.39336 -1.2755,0.39335 -1.66885,0 -0.39334,-0.39336 0.39335,-1.27549 0,-1.66884 -0.87955,-0.87956 -2.30271,-0.97887 -3.33768,-1.66884 -3.81882,-2.54589 1.04351,-1.32102 -5.00653,-3.33769 -1.05547,-0.35182 -2.28222,0.35181 -3.33769,0 -12.08812,-4.02938 2.63111,0.48113 -5.00653,-3.33769 -0.99511,-0.49755 -2.55098,0.7867 -3.33768,0 -0.39335,-0.39334 0.39334,-1.27549 0,-1.66884 -0.7867,-0.7867 -2.55099,0.7867 -3.33769,0 -0.39334,-0.39336 0.39335,-1.27549 0,-1.66884 -2.22512,-2.22513 -1.66884,2.7814 -1.66884,-1.66885 0,-6.04247 0.66773,-0.66724 -3.33769,-6.67537 -0.2753,-0.41297 0,-5.81864 0,-6.67537 0,-1.11256 0,-2.22512 0,-3.33769 0,-0.55628 -0.39335,-1.27549 0,-1.66884 0.39336,-0.39335 1.27549,0.39335 1.66884,0 4.69903,-0.10362 0.42497,-3.76265 1.66885,-5.00653 0.39335,-0.39335 1.2755,0.39335 1.66884,0 0.87956,-0.87955 0.97886,-2.30271 1.66885,-3.33768 0.96003,-1.44005 3.70301,-3.70302 5.00652,-5.00654 0.55628,-0.55628 1.31702,-0.96519 1.66885,-1.66884 0.24877,-0.49755 -0.39336,-1.27549 0,-1.66884 0.39335,-0.39335 1.17129,0.24878 1.66884,0 0.70364,-0.35182 1.11256,-1.11256 1.66884,-1.66884 0.55628,-0.55628 1.31703,-0.96521 1.66885,-1.66884 0.24877,-0.49756 -0.39335,-1.2755 0,-1.66886 0.39334,-0.39334 1.17129,0.24878 1.66884,0 0.4431,-0.22154 4.78498,-4.56343 5.00653,-5.00652 0.24877,-0.49756 -0.39336,-1.27549 0,-1.66884 0.39335,-0.39335 1.11256,0 1.66884,0 0.55628,-1.11256 1.2755,-2.15764 1.66884,-3.33768 0.34916,-1.04746 0,-5.3319 0,-6.67538 0,-5.00653 0,-10.01306 0,-15.01959 0,-5.00653 0,-10.01306 0,-15.01959 0,-0.55628 0,-1.11256 0,-1.66884 0,-0.55628 0.24878,-1.17129 0,-1.66884 -0.35181,-0.70365 -1.42006,-0.92251 -1.66884,-1.66885 -0.40255,-1.20765 0.55011,-6.12525 0,-6.67537 -0.87956,-0.87956 -2.45813,-0.78928 -3.33768,-1.66884 -0.87956,-0.87956 -0.78929,-2.45813 -1.66885,-3.33769 -3.4529,-3.4529 0.13498,5.27648 -3.33768,-1.66884 -0.24878,-0.49755 0.39334,-1.2755 0,-1.66884 -0.87956,-0.87956 -2.30271,-0.97886 -3.33769,-1.66884 -1.30915,-0.87277 -2.22512,-2.22513 -3.33769,-3.33769 -0.55628,-0.55629 -1.11256,-1.11257 -1.66884,-1.66885 -0.55628,-0.55628 -1.31701,-0.96519 -1.66884,-1.66884 -1.15097,-2.30193 2.02106,-1.49273 -1.66884,-3.33768 -0.49756,-0.24878 -1.2755,0.39334 -1.66885,0 -0.39334,-0.39335 0.24877,-1.1713 0,-1.66884 -0.35182,-0.70365 -1.23246,-1.01427 -1.66884,-1.66885 -0.68998,-1.03497 -0.78929,-2.45813 -1.66885,-3.33769 -0.39335,-0.39335 -1.27548,0.39336 -1.66884,0 -0.87955,-0.87955 -0.78928,-2.45813 -1.66884,-3.33768 -0.39335,-0.39335 -1.2755,0.39335 -1.66884,0 -0.39335,-0.39335 0.39334,-1.2755 0,-1.66884 -0.87957,-0.87957 -2.45813,-0.78929 -3.33769,-1.66884 -0.39335,-0.39336 0.39335,-1.2755 0,-1.66886 -0.87956,-0.87955 -2.30272,-0.97886 -3.33769,-1.66884 -0.65457,-0.43637 -0.96519,-1.31702 -1.66884,-1.66884 -0.49755,-0.24878 -1.27549,0.39335 -1.66884,0 -0.39335,-0.39335 0.24878,-1.17128 0,-1.66884 -3.47267,-6.94532 0.11518,1.78405 -3.33768,-1.66884 -0.39336,-0.39335 0.39334,-1.2755 0,-1.66884 -0.39336,-0.39336 -1.2755,0.39334 -1.66886,0 -0.87955,-0.87957 -0.97886,-2.30272 -1.66884,-3.3377 -0.43637,-0.65457 -1.31701,-0.96519 -1.66884,-1.66884 -0.24878,-0.49755 0.39335,-1.27549 0,-1.66884 -0.39335,-0.39335 -1.27549,0.39335 -1.66884,0 -0.39335,-0.39335 0.24878,-1.17129 0,-1.66884 -0.70365,-1.4073 -2.63403,-1.9304 -3.33768,-3.33768 -0.24878,-0.49756 0,-1.11257 0,-1.66885 0,-0.55628 0,-1.11257 0,-1.66885 0,-1.41292 -0.29907,-5.77818 0,-6.67536 0.24878,-0.74634 1.23245,-1.01427 1.66884,-1.66885 0.68998,-1.03498 0.97886,-2.30271 1.66884,-3.33769 0.55628,-0.55628 1.11256,-1.11256 1.66884,-1.66884 0.55628,0 1.2755,0.39335 1.66884,0 0,-2.45554 -0.39334,-1.27549 1.66884,-3.33768 0.55628,-0.55628 1.11258,-2.22513 1.66886,-1.66885 1.45636,1.45636 -12.18475,5.17415 3.33768,0"
       id="path5319"
       inkscape:connector-curvature="0" />
  </g>
</svg>
